# xmcd CD database file
#
# Track frame offsets:
#	151
#	28628
#	67555
#	105855
#	141606
#	157308
#	186018
#	199653
#	222214
#	236142
#	253870
#	269357
#
# Disc length: 4176 seconds
#
# Revision: 2
# Processed by: cddbd v1.5.2PL0 Copyright (c) Steve Scherf et al.
# Submitted via: CDex 1.51
#
DISCID=ae104e0c
DTITLE=Various Artist - Face à Face {Duo for violin and cello} Renaud and Gautier Capuçon
DYEAR=2002
DGENRE=Contemporain
TTITLE0=Johan Halvorsen  [1864-1935] - Passacaille after Handel - Suite N°7 in G minor
TTITLE1=Zoltán Kodály   [1882-1967] - Duo Op.7 - I. Allegro serioso, non troppo
TTITLE2=Zoltán Kodály   [1882-1967] - Duo Op.7 - II. Adagio
TTITLE3=Zoltán Kodály   [1882-1967] - Duo Op.7 - III. Maestoso e largamente, ma non troppo lento
TTITLE4=Éric Tanguy  [1968-] - Sonate pour violon and violoncelle - I. Animé
TTITLE5=Éric Tanguy  [1968-] - Sonate pour violon and violoncelle - II. Dolce
TTITLE6=Éric Tanguy  [1968-] - Sonate pour violon and violoncelle - III. Vif
TTITLE7=Erwin Schulhoff  [1894-1942] - Duo - I. Moderato
TTITLE8=Erwin Schulhoff  [1894-1942] - Duo - II. Zingaresca - allegro giocoso
TTITLE9=Erwin Schulhoff  [1894-1942] - Duo - III. Andantino
TTITLE10=Erwin Schulhoff  [1894-1942] - Duo - IV. Moderato
TTITLE11=Joseph Ghys [1807-1848] and Adrien François Servais [1807-1866 - Variation brillantes sur 'God Save the King'
EXTD=YEAR: 2002
EXTT0=
EXTT1=
EXTT2=
EXTT3=
EXTT4=
EXTT5=
EXTT6=
EXTT7=
EXTT8=
EXTT9=
EXTT10=
EXTT11=
PLAYORDER=
